<?xml version="1.0" standalone="no"?>
<!DOCTYPE svg PUBLIC "-//W3C//DTD SVG 20010904//EN"
 "http://www.w3.org/TR/2001/REC-SVG-20010904/DTD/svg10.dtd">
<svg version="1.0" xmlns="http://www.w3.org/2000/svg"
 width="600.000000pt" height="600.000000pt" viewBox="0 0 600.000000 600.000000"
 preserveAspectRatio="xMidYMid meet">
<metadata>
Created by potrace 1.16, written by Peter Selinger 2001-2019
</metadata>
<g transform="translate(0.000000,600.000000) scale(0.100000,-0.100000)"
fill="#000000" stroke="none">
<path d="M2845 5530 c-12 -4 -26 -14 -32 -21 -6 -8 -131 -246 -278 -529 -147
-283 -420 -810 -608 -1170 -1045 -2014 -1028 -1981 -1025 -2012 2 -20 13 -38
31 -52 l27 -20 878 73 c482 40 894 75 915 78 l37 6 0 -197 c0 -108 -3 -196 -7
-196 -5 0 -285 -20 -623 -45 -338 -24 -844 -61 -1125 -81 -374 -27 -516 -40
-533 -51 -33 -21 -46 -61 -30 -95 16 -33 765 -597 825 -621 62 -24 82 -26 838
-52 380 -13 1098 -39 1596 -57 l906 -32 57 28 c54 27 67 41 203 225 80 108
206 277 279 376 74 99 185 250 249 335 123 167 134 195 95 238 -25 27 -52 28
-326 7 -241 -18 -1165 -84 -1734 -125 -228 -16 -436 -32 -462 -35 l-48 -6 0
105 0 105 53 5 c28 4 239 22 467 41 1575 133 1572 132 1598 159 22 22 26 37
35 156 19 227 -13 537 -84 830 -132 550 -421 1115 -797 1565 -115 137 -344
360 -472 459 -230 179 -484 327 -702 412 l-98 37 0 56 c-1 59 -11 80 -47 99
-25 14 -30 14 -58 2z m351 -439 c583 -303 1067 -820 1399 -1496 180 -365 292
-734 337 -1105 13 -110 18 -434 6 -445 -6 -6 -84 -14 -858 -80 -223 -19 -542
-46 -709 -60 -167 -14 -305 -25 -307 -23 -2 2 17 53 41 112 123 298 202 648
234 1039 16 188 14 588 -4 773 -37 380 -122 801 -244 1205 -43 143 -45 149
-35 149 4 0 67 -31 140 -69z m-411 -3049 c-7 -7 -1656 -144 -1662 -138 -3 2
90 186 205 408 459 883 1165 2243 1345 2590 l112 218 3 -1537 c1 -845 0 -1538
-3 -1541z m228 2653 c128 -504 180 -876 180 -1290 -1 -409 -42 -732 -134
-1060 -29 -100 -93 -283 -104 -294 -3 -2 -5 639 -5 1425 0 786 4 1422 9 1414
5 -8 29 -96 54 -195z m2271 -3197 c-4 -7 -98 -134 -209 -283 -110 -148 -250
-337 -310 -419 -60 -81 -120 -155 -133 -164 -25 -16 -166 -13 -1297 28 -137 6
-632 23 -1098 40 -581 21 -858 35 -877 43 -30 13 -590 428 -590 438 0 3 109
13 243 22 243 18 1262 92 2297 167 305 22 620 45 700 51 80 6 375 27 655 48
589 44 629 46 619 29z"/>
</g>
</svg>
